<mxfile host="app.diagrams.net" modified="2021-12-17T09:37:56.776Z" agent="5.0 (Macintosh; Intel Mac OS X 10_15_7) AppleWebKit/537.36 (KHTML, like Gecko) Chrome/96.0.4664.93 Safari/537.36" etag="9Yj4Xy7maTLa3wgzTZpN" version="15.9.4" type="github">
  <diagram id="-BDTeBijwdTVi4fhLwuw" name="Page-1">
    <mxGraphModel dx="946" dy="646" grid="1" gridSize="10" guides="1" tooltips="1" connect="1" arrows="1" fold="1" page="1" pageScale="1" pageWidth="827" pageHeight="1169" math="0" shadow="0">
      <root>
        <mxCell id="0" />
        <mxCell id="1" parent="0" />
        <mxCell id="tZaITLDV00XNWz6PWwAZ-3" value="" style="edgeStyle=orthogonalEdgeStyle;rounded=0;orthogonalLoop=1;jettySize=auto;html=1;" edge="1" parent="1" source="tZaITLDV00XNWz6PWwAZ-1" target="tZaITLDV00XNWz6PWwAZ-2">
          <mxGeometry relative="1" as="geometry" />
        </mxCell>
        <mxCell id="tZaITLDV00XNWz6PWwAZ-1" value="Cache Files &amp;amp; leere Ordner lÃ¶schen" style="rounded=1;whiteSpace=wrap;html=1;" vertex="1" parent="1">
          <mxGeometry x="320" y="180" width="120" height="60" as="geometry" />
        </mxCell>
        <mxCell id="tZaITLDV00XNWz6PWwAZ-2" value="" style="rounded=1;whiteSpace=wrap;html=1;" vertex="1" parent="1">
          <mxGeometry x="320" y="320" width="120" height="60" as="geometry" />
        </mxCell>
      </root>
    </mxGraphModel>
  </diagram>
</mxfile>
